<?xml version="1.0" standalone="no"?>
<!DOCTYPE svg PUBLIC "-//W3C//DTD SVG 20010904//EN"
 "http://www.w3.org/TR/2001/REC-SVG-20010904/DTD/svg10.dtd">
<svg version="1.0" xmlns="http://www.w3.org/2000/svg"
 width="20px" height="20px" viewBox="0 0 960.000000 960.000000"
 preserveAspectRatio="xMidYMid meet">

<g transform="translate(0.000000,960.000000) scale(0.100000,-0.100000)"
fill="#000000" stroke="none">
<path d="M0 4800 l0 -4800 4800 0 4800 0 0 4800 0 4800 -4800 0 -4800 0 0
-4800z m1454 604 c16 -16 21 -34 9 -34 -10 0 -43 32 -43 42 0 13 17 9 34 -8z
m2376 8 c0 -12 -39 -46 -45 -41 -6 7 24 49 36 49 5 0 9 -4 9 -8z m1030 1 c0
-10 -32 -43 -42 -43 -13 0 -9 17 8 34 16 16 34 21 34 9z m-3670 -63 l0 -60 75
0 75 0 0 61 c0 52 2 60 18 57 15 -3 17 -18 19 -133 2 -90 -1 -131 -9 -136 -22
-14 -28 2 -28 67 l0 64 -75 0 -75 0 0 -63 c0 -66 -4 -79 -23 -71 -8 3 -11 28
-10 72 1 37 2 97 2 135 1 53 4 67 16 67 12 0 15 -13 15 -60z m610 14 c0 -40 2
-45 18 -39 38 16 63 17 87 1 23 -15 25 -22 25 -101 0 -46 -4 -87 -10 -90 -6
-4 -10 20 -10 65 0 86 -11 110 -49 110 -41 0 -55 -24 -61 -102 -9 -117 -25
-78 -28 67 -2 116 0 135 13 135 11 0 15 -11 15 -46z m580 0 c0 -40 2 -45 18
-39 38 16 63 17 87 1 24 -16 25 -21 25 -106 0 -50 -4 -90 -9 -90 -5 0 -11 36
-13 81 -3 86 -18 112 -58 102 -33 -9 -45 -34 -50 -105 -9 -117 -25 -78 -28 67
-2 116 0 135 13 135 11 0 15 -11 15 -46z m722 34 c2 -7 2 -69 0 -136 l-4 -124
-23 6 c-13 3 -27 2 -30 -4 -8 -13 -51 -13 -76 0 -27 15 -49 62 -49 105 0 27 8
44 30 67 31 30 55 34 103 13 13 -5 17 -2 17 14 0 16 -6 21 -25 21 -16 0 -25 6
-25 15 0 9 9 15 25 15 14 0 25 5 25 10 0 14 27 12 32 -2z m195 -3 c-2 -5 -29
-10 -60 -10 -42 -1 -53 2 -46 11 12 14 110 13 106 -1z m1023 0 c0 -8 -6 -15
-13 -15 -8 0 -14 7 -14 15 0 8 6 15 14 15 7 0 13 -7 13 -15z m364 -1 c4 -9 2
-22 -3 -28 -5 -6 -8 -59 -7 -118 l2 -107 -25 0 c-14 0 -40 -3 -58 -6 -27 -6
-37 -3 -63 23 -24 24 -30 39 -30 72 0 57 23 97 60 105 33 7 70 -1 70 -16 0 -6
5 -7 10 -4 6 3 10 15 10 26 0 14 -7 19 -24 19 -31 0 -44 18 -19 26 10 3 25 9
33 14 23 14 37 12 44 -6z m556 -30 c0 -40 2 -45 18 -39 38 16 63 17 87 1 25
-16 26 -21 23 -102 -3 -98 -21 -120 -20 -25 1 85 -10 111 -45 111 -48 0 -56
-13 -62 -95 -9 -123 -26 -89 -29 60 -2 116 0 135 13 135 11 0 15 -11 15 -46z
m1240 0 c0 -40 2 -45 18 -39 38 16 63 17 87 1 24 -16 25 -21 25 -106 0 -50 -4
-90 -9 -90 -5 0 -11 36 -13 81 -3 86 -18 112 -58 102 -33 -9 -45 -34 -50 -105
-9 -117 -25 -78 -28 67 -2 116 0 135 13 135 11 0 15 -11 15 -46z m-1350 -4 c0
-20 5 -30 15 -30 8 0 15 -4 15 -10 0 -5 -7 -10 -15 -10 -12 0 -15 -15 -15 -75
0 -60 3 -75 15 -75 20 0 19 -19 0 -26 -31 -12 -45 15 -45 91 0 54 -4 76 -16
86 -14 11 -14 13 0 21 9 5 16 20 16 33 0 16 6 25 15 25 10 0 15 -10 15 -30z
m-2357 -10 c-3 -11 -11 -25 -19 -31 -10 -8 -14 -37 -14 -100 0 -83 -9 -111
-24 -73 -6 16 -8 16 -24 0 -25 -22 -68 -20 -92 4 -17 17 -20 33 -20 100 0 64
3 80 15 80 12 0 15 -14 15 -69 0 -90 5 -101 45 -101 47 0 57 19 56 100 -1 68
0 70 24 70 25 0 33 14 15 25 -15 9 -2 25 14 19 8 -3 12 -14 9 -24z m-1081 -32
c11 -19 10 -188 -2 -188 -6 0 -10 30 -10 71 0 85 -11 109 -49 109 -41 0 -54
-22 -60 -103 -9 -105 -26 -89 -29 27 -3 98 -3 98 20 93 13 -4 30 -2 38 4 19
12 81 4 92 -13z m566 6 c20 -14 22 -23 22 -105 0 -53 -4 -89 -10 -89 -6 0 -10
32 -10 75 0 83 -19 119 -59 108 -34 -9 -46 -33 -51 -105 -8 -104 -25 -88 -28
26 -3 98 -3 98 20 93 13 -4 30 -2 38 3 22 14 53 12 78 -6z m1019 10 c27 -8 43
-51 43 -120 0 -29 5 -56 11 -60 8 -4 8 -9 0 -17 -7 -7 -18 -7 -36 3 -20 10
-28 11 -37 2 -17 -17 -69 -15 -90 5 -42 38 -11 93 56 100 49 6 70 21 60 46
-11 31 -94 28 -94 -3 0 -6 -7 -10 -15 -10 -18 0 -19 11 -2 32 20 26 59 34 104
22z m368 -19 c14 -13 25 -29 25 -35 0 -17 -25 -11 -38 10 -17 28 -66 27 -86
-2 -19 -27 -21 -88 -3 -112 19 -26 68 -24 85 3 17 24 32 27 32 6 0 -27 -38
-55 -74 -55 -54 0 -78 27 -84 93 -4 52 -2 58 26 87 39 38 83 40 117 5z m190
15 c33 -13 59 -71 51 -115 -15 -79 -101 -113 -151 -59 -31 33 -40 75 -25 119
19 58 65 78 125 55z m372 -16 c8 -10 13 -46 13 -84 0 -37 5 -71 12 -78 18 -18
0 -28 -23 -14 -16 10 -27 10 -54 0 -46 -16 -86 -2 -99 35 -14 39 18 69 81 77
37 4 49 9 51 24 5 22 -22 46 -50 46 -10 0 -26 -9 -35 -20 -20 -24 -33 -26 -33
-6 0 8 10 22 23 31 28 20 96 14 114 -11z m674 -3 c24 -24 29 -38 29 -76 0 -38
-5 -52 -29 -76 -20 -20 -39 -29 -61 -29 -22 0 -41 9 -61 29 -24 24 -29 38 -29
76 0 38 5 52 29 76 20 20 39 29 61 29 22 0 41 -9 61 -29z m676 23 c28 -8 44
-55 39 -114 -3 -30 1 -50 11 -62 19 -22 1 -31 -32 -16 -19 9 -28 9 -37 0 -32
-32 -108 -1 -108 43 0 36 23 56 75 63 44 6 50 10 53 33 2 21 -2 28 -23 33 -26
7 -65 -8 -65 -24 0 -6 -7 -10 -16 -10 -24 0 -13 33 16 47 27 14 53 16 87 7z
m578 -21 c9 -11 14 -43 15 -83 0 -37 5 -71 12 -78 17 -17 0 -28 -22 -14 -16 9
-30 9 -65 0 -53 -14 -75 -6 -90 36 -12 36 16 64 74 74 54 9 76 36 47 58 -27
20 -53 18 -73 -6 -17 -20 -43 -27 -43 -12 0 13 23 39 40 46 28 10 91 -2 105
-21z m223 11 c20 -14 22 -23 22 -105 0 -53 -4 -89 -10 -89 -6 0 -10 32 -10 75
0 83 -19 119 -59 108 -34 -9 -46 -33 -51 -105 -8 -104 -25 -88 -28 26 -3 98
-3 98 20 93 13 -4 30 -2 38 3 22 14 53 12 78 -6z m-4880 -91 c-2 -66 -7 -98
-15 -101 -10 -3 -13 21 -13 97 0 84 3 101 15 101 13 0 15 -15 13 -97z m2847 5
c0 -85 -7 -114 -26 -102 -4 2 -7 47 -8 99 -2 85 0 95 16 95 16 0 18 -10 18
-92z m1384 17 c12 -41 25 -75 29 -75 4 0 18 34 31 75 18 54 30 75 42 75 15 0
11 -17 -26 -115 -23 -63 -50 -126 -59 -140 -18 -27 -56 -34 -56 -10 0 8 9 15
20 15 36 0 35 43 -3 150 -30 88 -32 100 -17 100 13 0 22 -19 39 -75z m-4529
-511 c0 -112 -2 -134 -15 -134 -13 0 -15 21 -15 133 0 74 3 137 6 140 18 18
24 -16 24 -139z m140 127 c5 -11 10 -22 10 -26 0 -11 -38 14 -44 30 -8 22 21
19 34 -4z m1810 -2 c7 -11 9 -23 6 -26 -7 -7 -46 26 -46 39 0 17 30 7 40 -13z
m180 -5 c0 -8 -7 -14 -15 -14 -15 0 -21 21 -9 33 10 9 24 -2 24 -19z m205 1
c14 -13 25 -31 25 -40 0 -23 -24 -67 -49 -89 -12 -11 -21 -27 -21 -38 0 -10
-7 -18 -15 -18 -26 0 -17 36 20 80 38 46 40 52 25 81 -8 13 -21 19 -46 19 -31
0 -37 -4 -47 -30 -12 -32 -34 -35 -29 -4 5 29 50 64 83 64 18 0 39 -9 54 -25z
m-495 -27 c0 -7 -9 -26 -20 -43 -16 -23 -20 -47 -20 -107 0 -70 -10 -100 -23
-65 -4 10 -7 10 -18 0 -18 -18 -84 -16 -99 2 -17 21 -19 177 -2 182 9 4 12
-13 12 -61 0 -82 12 -116 42 -116 48 0 68 35 68 120 0 58 1 61 21 55 19 -6 21
-4 15 19 -5 19 -3 26 9 26 8 0 15 -6 15 -12z m212 6 c9 -8 -3 -44 -14 -44 -5
0 -7 4 -3 9 3 5 1 12 -5 16 -5 3 -10 10 -10 16 0 10 23 13 32 3z m-1151 -65
c10 -13 19 -35 21 -49 3 -24 1 -25 -69 -28 -77 -3 -85 -10 -63 -53 15 -27 75
-26 92 1 7 11 18 20 25 20 31 0 1 -45 -39 -59 -68 -24 -124 22 -121 99 2 52
18 79 55 95 39 16 76 6 99 -26z m-699 14 c14 -13 18 -31 18 -90 0 -42 4 -73
10 -73 6 0 10 -4 10 -10 0 -13 -37 -13 -44 -1 -4 5 -18 3 -35 -5 -17 -8 -40
-12 -59 -8 -62 12 -63 96 -2 110 14 4 38 9 55 13 32 8 46 38 23 52 -24 16 -67
10 -78 -11 -6 -11 -15 -20 -20 -20 -17 0 -11 39 8 49 27 16 93 13 114 -6z
m124 6 c4 -8 9 -8 17 0 15 15 70 14 85 -1 10 -10 17 -10 32 0 27 16 75 15 90
-2 17 -21 20 -186 3 -186 -9 0 -13 20 -13 74 0 76 -13 106 -45 106 -36 0 -65
-83 -51 -150 4 -22 2 -30 -9 -30 -12 0 -15 15 -15 73 0 87 -14 113 -53 103
-30 -7 -47 -52 -47 -128 0 -32 -4 -48 -12 -48 -10 0 -12 25 -11 97 1 54 2 99
3 101 1 7 20 1 26 -9z m687 -1 c4 -10 7 -10 18 0 17 16 71 16 87 0 10 -10 17
-10 32 0 25 15 72 16 88 0 17 -17 17 -188 0 -188 -9 0 -12 15 -9 51 5 80 -6
118 -35 125 -42 11 -58 -15 -62 -101 -3 -56 -8 -75 -18 -75 -11 0 -14 19 -14
84 0 69 -3 85 -16 90 -46 18 -74 -28 -74 -120 0 -41 -4 -54 -15 -54 -12 0 -15
17 -15 93 0 52 3 97 7 100 10 11 21 8 26 -5z m563 -2 c15 -15 19 -46 6 -46 -4
0 -15 9 -25 20 -37 44 -97 8 -97 -58 0 -47 24 -82 55 -82 24 0 55 23 55 41 0
5 5 9 10 9 17 0 11 -36 -9 -54 -11 -10 -36 -18 -57 -19 -49 -1 -84 37 -84 94
0 43 21 94 42 102 27 11 90 6 104 -7z m437 0 c27 -21 40 -80 27 -120 -16 -51
-41 -68 -91 -64 -37 3 -47 8 -67 38 -29 43 -25 100 9 136 26 28 92 33 122 10z
m117 -86 c0 -82 -3 -100 -15 -100 -12 0 -15 18 -15 100 0 82 3 100 15 100 12
0 15 -18 15 -100z m160 -85 c0 -8 -7 -15 -15 -15 -8 0 -15 7 -15 15 0 8 7 15
15 15 8 0 15 -7 15 -15z"/>
<path d="M2962 5290 c-21 -34 -15 -88 13 -115 13 -14 29 -25 35 -25 6 0 22 11
35 25 29 28 33 79 9 113 -20 29 -74 30 -92 2z"/>
<path d="M4540 5291 c-14 -27 -13 -94 3 -113 38 -49 98 -19 99 48 1 60 -16 84
-57 84 -24 0 -38 -6 -45 -19z"/>
<path d="M3198 5219 c-24 -13 -23 -46 1 -58 23 -13 81 5 81 24 0 7 3 20 6 29
5 13 -1 16 -32 16 -22 0 -47 -5 -56 -11z"/>
<path d="M3750 5294 c-19 -22 -17 -101 2 -121 21 -20 65 -20 86 1 20 20 22 97
2 121 -16 20 -74 19 -90 -1z"/>
<path d="M4100 5212 c-24 -20 -19 -48 10 -57 31 -10 80 22 80 50 0 22 -5 25
-34 25 -19 0 -44 -8 -56 -18z"/>
<path d="M4800 5312 c-26 -9 -39 -35 -39 -77 0 -70 45 -102 92 -64 22 16 27
29 27 62 0 23 -4 47 -8 54 -10 16 -54 31 -72 25z"/>
<path d="M5510 5226 c-34 -8 -46 -16 -48 -32 -4 -28 20 -46 52 -38 33 8 48 27
44 57 -3 23 -4 24 -48 13z"/>
<path d="M6040 5223 c-32 -12 -37 -35 -14 -58 30 -30 93 2 94 48 0 13 -8 17
-32 16 -18 0 -40 -3 -48 -6z"/>
<path d="M1982 4774 c-12 -8 -22 -24 -22 -35 0 -16 7 -19 53 -19 62 0 70 5 55
34 -21 39 -49 46 -86 20z"/>
<path d="M1335 4703 c-11 -2 -30 -6 -43 -9 -18 -4 -23 -10 -20 -32 6 -55 98
-32 98 25 0 12 -3 22 -7 22 -5 -1 -17 -3 -28 -6z"/>
<path d="M3097 4775 c-24 -24 -30 -69 -13 -109 12 -30 20 -36 44 -36 41 0 67
32 66 83 -2 63 -60 100 -97 62z"/>
</g>
</svg>
